G75*
%MOIN*%
%OFA0B0*%
%FSLAX25Y25*%
%IPPOS*%
%LPD*%
%AMOC8*
5,1,8,0,0,1.08239X$1,22.5*
%
%ADD10C,0.15800*%
%ADD11C,0.06343*%
%ADD12C,0.06343*%
%ADD13R,0.06343X0.06343*%
%ADD14C,0.06800*%
%ADD15C,0.06800*%
%ADD16R,0.04343X0.03556*%
%ADD17C,0.04400*%
D10*
X0021000Y0111250D03*
D11*
X0103228Y0111250D02*
X0108772Y0111250D01*
X0108772Y0101250D02*
X0103228Y0101250D01*
X0103228Y0091250D02*
X0108772Y0091250D01*
X0108772Y0081250D02*
X0103228Y0081250D01*
X0103228Y0071250D02*
X0108772Y0071250D01*
X0116000Y0068478D02*
X0116000Y0074022D01*
X0126000Y0074022D02*
X0126000Y0068478D01*
X0136000Y0068478D02*
X0136000Y0074022D01*
X0146000Y0074022D02*
X0146000Y0068478D01*
X0156000Y0068478D02*
X0156000Y0074022D01*
X0163228Y0071250D02*
X0168772Y0071250D01*
X0168772Y0081250D02*
X0163228Y0081250D01*
X0163228Y0091250D02*
X0168772Y0091250D01*
X0168772Y0101250D02*
X0163228Y0101250D01*
X0163228Y0111250D02*
X0168772Y0111250D01*
X0168772Y0121250D02*
X0163228Y0121250D01*
X0163228Y0131250D02*
X0168772Y0131250D01*
X0168772Y0141250D02*
X0163228Y0141250D01*
X0163228Y0151250D02*
X0168772Y0151250D01*
X0168772Y0161250D02*
X0163228Y0161250D01*
X0163228Y0171250D02*
X0168772Y0171250D01*
X0168772Y0181250D02*
X0163228Y0181250D01*
X0163228Y0191250D02*
X0168772Y0191250D01*
X0168772Y0201250D02*
X0163228Y0201250D01*
X0108772Y0201250D02*
X0103228Y0201250D01*
X0103228Y0191250D02*
X0108772Y0191250D01*
X0108772Y0181250D02*
X0103228Y0181250D01*
X0103228Y0171250D02*
X0108772Y0171250D01*
X0108772Y0161250D02*
X0103228Y0161250D01*
X0103228Y0151250D02*
X0108772Y0151250D01*
X0108772Y0141250D02*
X0103228Y0141250D01*
X0103228Y0131250D02*
X0108772Y0131250D01*
X0108772Y0121250D02*
X0103228Y0121250D01*
D12*
X0026000Y0026750D03*
X0036000Y0026750D03*
X0046000Y0026750D03*
X0056000Y0026750D03*
X0066000Y0026750D03*
X0076000Y0026750D03*
X0086000Y0026750D03*
X0096000Y0026750D03*
X0106000Y0026750D03*
X0116000Y0026750D03*
X0126000Y0026750D03*
X0136000Y0026750D03*
X0146000Y0026750D03*
X0156000Y0026750D03*
X0081000Y0070250D03*
X0071000Y0070250D03*
X0061000Y0070250D03*
X0051000Y0070250D03*
X0041000Y0070250D03*
X0031000Y0070250D03*
X0021000Y0070250D03*
X0011000Y0070250D03*
X0011000Y0141250D03*
X0021000Y0141250D03*
X0031000Y0141250D03*
X0041000Y0141250D03*
X0051000Y0141250D03*
X0061000Y0141250D03*
X0071000Y0141250D03*
X0081000Y0141250D03*
D13*
X0166000Y0026750D03*
D14*
X0181000Y0051250D03*
X0181000Y0061250D03*
X0181000Y0071250D03*
X0181000Y0081250D03*
X0181000Y0091250D03*
X0181000Y0101250D03*
X0181000Y0111250D03*
X0181000Y0121250D03*
D15*
X0178000Y0166250D02*
X0184000Y0166250D01*
X0184000Y0176250D02*
X0178000Y0176250D01*
X0178000Y0186250D02*
X0184000Y0186250D01*
X0184000Y0196250D02*
X0178000Y0196250D01*
X0178000Y0206250D02*
X0184000Y0206250D01*
X0076000Y0209250D02*
X0076000Y0203250D01*
X0066000Y0203250D02*
X0066000Y0209250D01*
X0056000Y0209250D02*
X0056000Y0203250D01*
X0046000Y0203250D02*
X0046000Y0209250D01*
X0036000Y0209250D02*
X0036000Y0203250D01*
X0026000Y0203250D02*
X0026000Y0209250D01*
X0028500Y0057750D02*
X0034500Y0057750D01*
X0034500Y0047750D02*
X0028500Y0047750D01*
D16*
X0117500Y0125691D03*
X0117500Y0130809D03*
D17*
X0136000Y0116250D03*
X0126000Y0096250D03*
X0096000Y0086250D03*
X0066000Y0086250D03*
X0096000Y0051250D03*
X0091000Y0036250D03*
X0041000Y0041250D03*
X0026000Y0086250D03*
X0026000Y0161250D03*
X0126000Y0186250D03*
X0136000Y0196250D03*
X0136000Y0206250D03*
X0156000Y0186250D03*
X0143500Y0143250D03*
X0174500Y0076750D03*
X0166000Y0056250D03*
X0151000Y0056250D03*
M02*
