G75*
%MOIN*%
%OFA0B0*%
%FSLAX25Y25*%
%IPPOS*%
%LPD*%
%AMOC8*
5,1,8,0,0,1.08239X$1,22.5*
%
%ADD10C,0.05543*%
%ADD11C,0.05543*%
%ADD12R,0.05543X0.05543*%
%ADD13R,0.03543X0.02756*%
%ADD14C,0.06000*%
%ADD15C,0.06000*%
%ADD16R,0.04724X0.03150*%
%ADD17C,0.02400*%
%ADD18C,0.03600*%
%ADD19C,0.01600*%
D10*
X0103228Y0071250D02*
X0108772Y0071250D01*
X0116000Y0068478D02*
X0116000Y0074022D01*
X0108772Y0081250D02*
X0103228Y0081250D01*
X0103228Y0091250D02*
X0108772Y0091250D01*
X0108772Y0101250D02*
X0103228Y0101250D01*
X0103228Y0111250D02*
X0108772Y0111250D01*
X0108772Y0121250D02*
X0103228Y0121250D01*
X0103228Y0131250D02*
X0108772Y0131250D01*
X0108772Y0141250D02*
X0103228Y0141250D01*
X0103228Y0151250D02*
X0108772Y0151250D01*
X0108772Y0161250D02*
X0103228Y0161250D01*
X0103228Y0171250D02*
X0108772Y0171250D01*
X0108772Y0181250D02*
X0103228Y0181250D01*
X0103228Y0191250D02*
X0108772Y0191250D01*
X0108772Y0201250D02*
X0103228Y0201250D01*
X0163228Y0201250D02*
X0168772Y0201250D01*
X0168772Y0191250D02*
X0163228Y0191250D01*
X0163228Y0181250D02*
X0168772Y0181250D01*
X0168772Y0171250D02*
X0163228Y0171250D01*
X0163228Y0161250D02*
X0168772Y0161250D01*
X0168772Y0151250D02*
X0163228Y0151250D01*
X0163228Y0141250D02*
X0168772Y0141250D01*
X0168772Y0131250D02*
X0163228Y0131250D01*
X0163228Y0121250D02*
X0168772Y0121250D01*
X0168772Y0111250D02*
X0163228Y0111250D01*
X0163228Y0101250D02*
X0168772Y0101250D01*
X0168772Y0091250D02*
X0163228Y0091250D01*
X0163228Y0081250D02*
X0168772Y0081250D01*
X0168772Y0071250D02*
X0163228Y0071250D01*
X0156000Y0068478D02*
X0156000Y0074022D01*
X0146000Y0074022D02*
X0146000Y0068478D01*
X0136000Y0068478D02*
X0136000Y0074022D01*
X0126000Y0074022D02*
X0126000Y0068478D01*
D11*
X0126000Y0026750D03*
X0116000Y0026750D03*
X0106000Y0026750D03*
X0096000Y0026750D03*
X0086000Y0026750D03*
X0076000Y0026750D03*
X0066000Y0026750D03*
X0056000Y0026750D03*
X0046000Y0026750D03*
X0036000Y0026750D03*
X0026000Y0026750D03*
X0021000Y0070250D03*
X0011000Y0070250D03*
X0031000Y0070250D03*
X0041000Y0070250D03*
X0051000Y0070250D03*
X0061000Y0070250D03*
X0071000Y0070250D03*
X0081000Y0070250D03*
X0136000Y0026750D03*
X0146000Y0026750D03*
X0156000Y0026750D03*
X0081000Y0141250D03*
X0071000Y0141250D03*
X0061000Y0141250D03*
X0051000Y0141250D03*
X0041000Y0141250D03*
X0031000Y0141250D03*
X0021000Y0141250D03*
X0011000Y0141250D03*
D12*
X0016000Y0026750D03*
X0166000Y0026750D03*
D13*
X0117500Y0139191D03*
X0117500Y0144309D03*
X0011000Y0056309D03*
X0011000Y0051191D03*
D14*
X0181000Y0051250D03*
X0181000Y0061250D03*
X0181000Y0071250D03*
X0181000Y0081250D03*
X0181000Y0091250D03*
X0181000Y0101250D03*
X0181000Y0111250D03*
X0181000Y0121250D03*
D15*
X0178000Y0166250D02*
X0184000Y0166250D01*
X0184000Y0176250D02*
X0178000Y0176250D01*
X0178000Y0186250D02*
X0184000Y0186250D01*
X0184000Y0196250D02*
X0178000Y0196250D01*
X0178000Y0206250D02*
X0184000Y0206250D01*
X0076000Y0209250D02*
X0076000Y0203250D01*
X0066000Y0203250D02*
X0066000Y0209250D01*
X0056000Y0209250D02*
X0056000Y0203250D01*
X0046000Y0203250D02*
X0046000Y0209250D01*
X0036000Y0209250D02*
X0036000Y0203250D01*
X0026000Y0203250D02*
X0026000Y0209250D01*
X0028500Y0057750D02*
X0034500Y0057750D01*
X0034500Y0047750D02*
X0028500Y0047750D01*
D16*
X0124189Y0201250D03*
X0124189Y0211250D03*
X0147811Y0211250D03*
X0147811Y0201250D03*
D17*
X0021000Y0016250D02*
X0011000Y0016250D01*
X0006200Y0021050D01*
X0006200Y0036450D01*
X0011000Y0041250D01*
X0011000Y0051191D01*
X0011000Y0056309D02*
X0011000Y0070250D01*
X0011000Y0071250D01*
X0026000Y0086250D01*
X0031000Y0076250D02*
X0091000Y0136250D01*
X0091000Y0151250D01*
X0101000Y0161250D01*
X0106000Y0161250D01*
X0106000Y0151250D02*
X0101000Y0151250D01*
X0096000Y0146250D01*
X0096000Y0131250D01*
X0041000Y0076250D01*
X0041000Y0070250D01*
X0031000Y0070250D02*
X0031000Y0076250D01*
X0021000Y0070250D02*
X0021000Y0041250D01*
X0016000Y0036250D01*
X0016000Y0026750D01*
X0026000Y0021250D02*
X0021000Y0016250D01*
X0026000Y0021250D02*
X0026000Y0026750D01*
X0036000Y0026750D02*
X0036000Y0036250D01*
X0041000Y0041250D01*
X0046000Y0036250D02*
X0051000Y0041250D01*
X0066000Y0041250D01*
X0096000Y0071250D01*
X0096000Y0076250D01*
X0101000Y0081250D01*
X0106000Y0081250D01*
X0106000Y0091250D02*
X0101000Y0091250D01*
X0096000Y0086250D01*
X0106000Y0071250D02*
X0071000Y0036250D01*
X0061000Y0036250D01*
X0056000Y0031250D01*
X0056000Y0026750D01*
X0046000Y0021250D02*
X0051000Y0016250D01*
X0061000Y0016250D01*
X0063500Y0013750D01*
X0091000Y0013750D01*
X0096000Y0018750D01*
X0096000Y0026750D01*
X0106000Y0026750D02*
X0106000Y0036250D01*
X0121000Y0051250D01*
X0121000Y0066250D01*
X0126000Y0071250D02*
X0126000Y0096250D01*
X0121000Y0096250D02*
X0121000Y0076250D01*
X0131000Y0076250D02*
X0131000Y0101250D01*
X0121000Y0111250D01*
X0106000Y0111250D01*
X0101000Y0116250D02*
X0096000Y0116250D01*
X0066000Y0086250D01*
X0071000Y0070250D02*
X0071000Y0066250D01*
X0062500Y0057750D01*
X0031500Y0057750D01*
X0031500Y0047750D02*
X0062283Y0047750D01*
X0081000Y0066467D01*
X0081000Y0066250D01*
X0081000Y0066467D02*
X0081000Y0070250D01*
X0096000Y0051250D02*
X0076000Y0031250D01*
X0076000Y0026750D01*
X0068000Y0019250D02*
X0084000Y0019250D01*
X0086000Y0021250D01*
X0086000Y0026750D01*
X0086000Y0031250D01*
X0091000Y0036250D01*
X0068000Y0019250D02*
X0066000Y0021250D01*
X0066000Y0026750D01*
X0046000Y0026750D02*
X0046000Y0021250D01*
X0046000Y0026750D02*
X0046000Y0036250D01*
X0106000Y0101250D02*
X0116000Y0101250D01*
X0121000Y0096250D01*
X0116000Y0116250D02*
X0111000Y0116250D01*
X0116000Y0116250D02*
X0117500Y0117750D01*
X0117500Y0126250D01*
X0150968Y0126250D01*
X0151000Y0126218D01*
X0151000Y0116303D01*
X0150947Y0116250D01*
X0151000Y0116303D02*
X0151000Y0096250D01*
X0141000Y0086250D01*
X0141000Y0076250D01*
X0136000Y0071250D02*
X0136000Y0116250D01*
X0151000Y0126218D02*
X0151000Y0171250D01*
X0161000Y0181250D01*
X0166000Y0181250D01*
X0156000Y0186250D02*
X0126000Y0186250D01*
X0126000Y0160750D01*
X0143500Y0143250D01*
X0117500Y0144309D02*
X0117500Y0169750D01*
X0116000Y0171250D01*
X0106000Y0171250D01*
X0066000Y0171250D01*
X0046000Y0191250D01*
X0046000Y0206250D01*
X0056000Y0206250D02*
X0056000Y0196250D01*
X0071000Y0181250D01*
X0087276Y0181250D01*
X0106000Y0181250D01*
X0106000Y0191250D02*
X0091000Y0191250D01*
X0071000Y0191250D01*
X0066000Y0196250D01*
X0066000Y0206250D01*
X0076000Y0206250D02*
X0080965Y0201285D01*
X0105965Y0201285D01*
X0106000Y0201250D01*
X0111000Y0201250D01*
X0121000Y0211250D01*
X0124189Y0211250D01*
X0124189Y0201250D02*
X0131000Y0201250D01*
X0136000Y0196250D01*
X0141000Y0201250D02*
X0136000Y0206250D01*
X0141000Y0201250D02*
X0147811Y0201250D01*
X0147811Y0211250D02*
X0156000Y0211250D01*
X0166000Y0201250D01*
X0126000Y0186250D02*
X0111000Y0201250D01*
X0091000Y0191250D02*
X0086000Y0191250D01*
X0086000Y0181250D02*
X0087276Y0181250D01*
X0061000Y0156250D02*
X0036000Y0181250D01*
X0036000Y0206250D01*
X0026000Y0206250D02*
X0026000Y0181250D01*
X0051000Y0156250D01*
X0051000Y0141250D01*
X0061000Y0141250D02*
X0061000Y0156250D01*
X0026000Y0161250D02*
X0021000Y0156250D01*
X0021000Y0141250D01*
X0117500Y0139191D02*
X0117500Y0126250D01*
X0161000Y0091250D02*
X0151000Y0081250D01*
X0151000Y0076250D01*
X0151000Y0066250D02*
X0151000Y0056250D01*
X0141000Y0046250D02*
X0141000Y0066250D01*
X0131000Y0066250D02*
X0131000Y0046250D01*
X0116000Y0031250D01*
X0116000Y0026750D01*
X0141000Y0046250D02*
X0156000Y0031250D01*
X0156000Y0026750D01*
X0166000Y0056250D02*
X0166000Y0071250D01*
X0174500Y0076750D02*
X0170000Y0081250D01*
X0166000Y0081250D01*
X0166000Y0091250D02*
X0161000Y0091250D01*
D18*
X0174500Y0076750D03*
X0166000Y0056250D03*
X0151000Y0056250D03*
X0126000Y0096250D03*
X0136000Y0116250D03*
X0143500Y0143250D03*
X0156000Y0186250D03*
X0136000Y0196250D03*
X0136000Y0206250D03*
X0126000Y0186250D03*
X0096000Y0086250D03*
X0066000Y0086250D03*
X0096000Y0051250D03*
X0091000Y0036250D03*
X0041000Y0041250D03*
X0026000Y0086250D03*
X0026000Y0161250D03*
D19*
X0101000Y0116250D02*
X0111000Y0116250D01*
X0121000Y0076250D02*
X0121000Y0066250D01*
X0131000Y0066250D02*
X0131000Y0076250D01*
X0141000Y0076250D02*
X0141000Y0066250D01*
X0151000Y0066250D02*
X0151000Y0076250D01*
M02*
