%
M48
M72
T01C0.02000
T02C0.03543
T03C0.04000
T04C0.15000
%
T01
X41000Y41250
X26000Y86250
X66000Y86250
X96000Y86250
X126000Y96250
X136000Y116250
X143500Y143250
X156000Y186250
X136000Y196250
X136000Y206250
X126000Y186250
X174500Y76750
X166000Y56250
X151000Y56250
X96000Y51250
X91000Y36250
X26000Y161250
T02
X16000Y26750
X26000Y26750
X36000Y26750
X46000Y26750
X56000Y26750
X66000Y26750
X76000Y26750
X86000Y26750
X96000Y26750
X106000Y26750
X116000Y26750
X126000Y26750
X136000Y26750
X146000Y26750
X156000Y26750
X166000Y26750
X166000Y71250
X166000Y81250
X166000Y91250
X166000Y101250
X166000Y111250
X166000Y121250
X166000Y131250
X166000Y141250
X166000Y151250
X166000Y161250
X166000Y171250
X166000Y181250
X166000Y191250
X166000Y201250
X106000Y201250
X106000Y191250
X106000Y181250
X106000Y171250
X106000Y161250
X106000Y151250
X106000Y141250
X106000Y131250
X106000Y121250
X106000Y111250
X106000Y101250
X106000Y91250
X106000Y81250
X106000Y71250
X116000Y71250
X126000Y71250
X136000Y71250
X146000Y71250
X156000Y71250
X81000Y70250
X71000Y70250
X61000Y70250
X51000Y70250
X41000Y70250
X31000Y70250
X21000Y70250
X11000Y70250
X11000Y141250
X21000Y141250
X31000Y141250
X41000Y141250
X51000Y141250
X61000Y141250
X71000Y141250
X81000Y141250
T03
X76000Y206250
X66000Y206250
X56000Y206250
X46000Y206250
X36000Y206250
X26000Y206250
X31500Y57750
X31500Y47750
X181000Y51250
X181000Y61250
X181000Y71250
X181000Y81250
X181000Y91250
X181000Y101250
X181000Y111250
X181000Y121250
X181000Y166250
X181000Y176250
X181000Y186250
X181000Y196250
X181000Y206250
T04
X21000Y111250
M30
